<svg width="40" height="41" viewBox="0 0 40 41" fill="none" xmlns="http://www.w3.org/2000/svg">
<path d="M20.105 16.9951C21.8277 16.9951 23.2495 18.417 23.2495 20.1396C23.2495 21.8896 21.8277 23.2842 20.105 23.2842C18.355 23.2842 16.9605 21.8896 16.9605 20.1396C16.9605 18.417 18.355 16.9951 20.105 16.9951ZM20.105 22.1904C21.2261 22.1904 22.1284 21.2881 22.1284 20.1396C22.1284 19.0186 21.2261 18.1162 20.105 18.1162C18.9566 18.1162 18.0542 19.0186 18.0542 20.1396C18.0542 21.2881 18.9839 22.1904 20.105 22.1904ZM24.0972 16.8857C24.0972 17.2959 23.7691 17.624 23.3589 17.624C22.9488 17.624 22.6206 17.2959 22.6206 16.8857C22.6206 16.4756 22.9488 16.1475 23.3589 16.1475C23.7691 16.1475 24.0972 16.4756 24.0972 16.8857ZM26.1753 17.624C26.23 18.6357 26.23 21.6709 26.1753 22.6826C26.1206 23.667 25.9019 24.5146 25.1909 25.2529C24.48 25.9639 23.605 26.1826 22.6206 26.2373C21.6089 26.292 18.5738 26.292 17.562 26.2373C16.5777 26.1826 15.73 25.9639 14.9917 25.2529C14.2808 24.5146 14.062 23.667 14.0073 22.6826C13.9527 21.6709 13.9527 18.6357 14.0073 17.624C14.062 16.6396 14.2808 15.7646 14.9917 15.0537C15.73 14.3428 16.5777 14.124 17.562 14.0693C18.5738 14.0146 21.6089 14.0146 22.6206 14.0693C23.605 14.124 24.48 14.3428 25.1909 15.0537C25.9019 15.7646 26.1206 16.6396 26.1753 17.624ZM24.8628 23.749C25.1909 22.9561 25.1089 21.042 25.1089 20.1396C25.1089 19.2646 25.1909 17.3506 24.8628 16.5303C24.6441 16.0107 24.2339 15.5732 23.7144 15.3818C22.8941 15.0537 20.98 15.1357 20.105 15.1357C19.2027 15.1357 17.2886 15.0537 16.4956 15.3818C15.9488 15.6006 15.5386 16.0107 15.3198 16.5303C14.9917 17.3506 15.0738 19.2646 15.0738 20.1396C15.0738 21.042 14.9917 22.9561 15.3198 23.749C15.5386 24.2959 15.9488 24.7061 16.4956 24.9248C17.2886 25.2529 19.2027 25.1709 20.105 25.1709C20.98 25.1709 22.8941 25.2529 23.7144 24.9248C24.2339 24.7061 24.6714 24.2959 24.8628 23.749Z" fill="white"/>
<rect x="0.5" y="0.889648" width="39" height="39" rx="19.5" stroke="white"/>
</svg>
