<svg width="40" height="41" viewBox="0 0 40 41" fill="none" xmlns="http://www.w3.org/2000/svg">
<path d="M16.7144 25.3896H14.1714V17.2139H16.7144V25.3896ZM15.4292 16.1201C14.6363 16.1201 13.98 15.4365 13.98 14.6162C13.98 13.8232 14.6363 13.167 15.4292 13.167C16.2495 13.167 16.9058 13.8232 16.9058 14.6162C16.9058 15.4365 16.2495 16.1201 15.4292 16.1201ZM26.2027 25.3896H23.687V21.4248C23.687 20.4678 23.6597 19.2646 22.3472 19.2646C21.0347 19.2646 20.8433 20.2764 20.8433 21.3428V25.3896H18.3003V17.2139H20.7339V18.335H20.7613C21.1167 17.7061 21.937 17.0225 23.1675 17.0225C25.7378 17.0225 26.23 18.7178 26.23 20.9053V25.3896H26.2027Z" fill="white"/>
<rect x="0.5" y="0.889648" width="39" height="39" rx="19.5" stroke="white"/>
</svg>
