<svg width="40" height="41" viewBox="0 0 40 41" fill="none" xmlns="http://www.w3.org/2000/svg">
<path d="M25.6508 17.2959C25.6508 17.4326 25.6508 17.542 25.6508 17.6787C25.6508 21.4795 22.7797 25.8271 17.5023 25.8271C15.8617 25.8271 14.3578 25.3623 13.1 24.542C13.3187 24.5693 13.5375 24.5967 13.7836 24.5967C15.1234 24.5967 16.3539 24.1318 17.3383 23.3662C16.0805 23.3389 15.0141 22.5186 14.6586 21.3701C14.85 21.3975 15.0141 21.4248 15.2055 21.4248C15.4516 21.4248 15.725 21.3701 15.9437 21.3154C14.6312 21.042 13.6469 19.8936 13.6469 18.499V18.4717C14.0297 18.6904 14.4945 18.7998 14.9594 18.8271C14.1664 18.3076 13.6742 17.4326 13.6742 16.4482C13.6742 15.9014 13.8109 15.4092 14.057 14.999C15.4789 16.7217 17.6117 17.8701 19.9906 18.0068C19.9359 17.7881 19.9086 17.5693 19.9086 17.3506C19.9086 15.7646 21.1937 14.4795 22.7797 14.4795C23.6 14.4795 24.3383 14.8076 24.8852 15.3818C25.5141 15.2451 26.143 14.999 26.6898 14.6709C26.4711 15.3545 26.0336 15.9014 25.432 16.2568C26.0062 16.2021 26.5805 16.0381 27.0727 15.8193C26.6898 16.3936 26.1977 16.8857 25.6508 17.2959Z" fill="white"/>
<rect x="0.5" y="0.889648" width="39" height="39" rx="19.5" stroke="white"/>
</svg>
